<?xml version="1.0" standalone="no"?>
<!DOCTYPE svg PUBLIC "-//W3C//DTD SVG 20010904//EN"
 "http://www.w3.org/TR/2001/REC-SVG-20010904/DTD/svg10.dtd">
<svg version="1.0" xmlns="http://www.w3.org/2000/svg"
 width="740.000000pt" height="710.000000pt" viewBox="0 0 740.000000 710.000000"
 preserveAspectRatio="xMidYMid meet">

<g transform="translate(0.000000,710.000000) scale(0.100000,-0.100000)"
fill="#000000" stroke="none">
<path d="M6320 6740 c-52 -4 -162 -13 -245 -19 -154 -12 -346 -30 -610 -57
-82 -9 -199 -19 -259 -24 -173 -14 -249 -64 -298 -195 -22 -58 -23 -74 -26
-480 -2 -307 0 -431 9 -463 16 -56 86 -135 141 -157 24 -10 66 -20 93 -24 l50
-6 1 -95 c2 -122 1 -117 24 -123 24 -6 89 36 210 137 l85 71 475 5 475 5 64
35 c76 41 124 100 140 174 15 70 31 306 31 452 0 67 5 213 11 325 7 153 7 215
-2 254 -38 161 -125 205 -369 185z m-7 -183 c6 -17 -16 -104 -30 -118 -21 -21
-32 0 -26 54 3 29 10 58 16 65 12 16 34 15 40 -1z m181 -30 c9 -15 1 -27 -56
-82 -67 -65 -81 -74 -93 -55 -12 19 100 162 123 158 8 -2 20 -11 26 -21z m12
-182 c9 -22 -10 -40 -56 -55 -74 -24 -78 24 -5 56 40 17 54 17 61 -1z m-331
-18 l27 -23 -16 -119 c-31 -228 -44 -298 -58 -306 -21 -14 -45 -10 -63 8 -15
15 -17 39 -13 216 l4 199 27 24 c35 30 59 30 92 1z m-519 -62 c15 -23 16 -54
10 -298 -7 -258 -8 -273 -28 -289 -26 -23 -51 -23 -71 0 -12 14 -17 43 -19
127 l-3 110 -90 -4 c-49 -1 -95 -7 -102 -13 -8 -6 -13 -48 -15 -116 -3 -100
-4 -107 -26 -118 -33 -16 -60 -6 -79 29 -13 27 -15 63 -9 276 4 135 10 254 12
264 3 9 18 24 34 32 25 13 30 13 49 -3 18 -15 21 -30 23 -127 l3 -110 80 4
c129 6 125 2 125 125 0 97 2 106 22 120 33 23 65 20 84 -9z m222 9 c42 -29 18
-104 -34 -104 -25 0 -64 35 -64 57 0 18 45 63 62 63 8 0 24 -7 36 -16z m3
-205 c20 -20 21 -30 18 -182 -3 -191 -11 -216 -66 -217 -48 0 -53 18 -53 203
1 174 5 196 40 210 27 10 40 7 61 -14z m246 -289 c33 -30 38 -59 16 -89 -28
-36 -85 -41 -107 -9 -22 31 -20 52 10 87 30 36 52 39 81 11z m-1017 -125 c0
-30 -32 -65 -60 -65 -28 0 -25 28 7 62 33 35 53 36 53 3z m115 -104 c7 -12
-12 -24 -42 -27 -22 -3 -31 14 -16 29 10 10 51 8 58 -2z"/>
<path d="M2270 6465 c-72 -14 -83 -17 -155 -50 -113 -51 -299 -228 -420 -397
-88 -123 -274 -353 -390 -482 -77 -86 -99 -125 -115 -208 -12 -60 -12 -74 4
-129 9 -34 25 -81 35 -103 11 -23 26 -59 35 -80 9 -22 35 -63 57 -92 34 -44
38 -55 30 -75 -11 -27 -44 -162 -62 -259 -16 -84 -17 -434 -2 -525 11 -59 10
-77 -3 -115 -24 -67 -61 -224 -75 -317 -20 -129 7 -219 103 -347 99 -132 280
-257 503 -346 119 -48 264 -80 365 -80 l54 0 -56 -57 c-57 -59 -137 -176 -183
-268 -13 -27 -50 -75 -80 -105 -64 -62 -115 -131 -115 -154 0 -9 -17 -27 -39
-40 -40 -25 -81 -93 -81 -134 0 -12 -26 -50 -60 -88 -53 -59 -60 -71 -60 -108
0 -47 44 -126 80 -146 20 -11 21 -17 15 -65 -11 -95 46 -180 154 -228 44 -19
56 -19 175 -4 21 2 26 -5 56 -84 39 -102 129 -180 214 -185 23 -2 43 -3 45 -3
12 -2 -25 -31 -39 -31 -10 0 -32 -14 -49 -31 -38 -38 -41 -82 -8 -120 35 -41
63 -51 166 -56 108 -6 154 3 300 64 188 78 235 81 355 25 45 -21 129 -70 186
-109 120 -80 161 -102 245 -131 177 -61 417 -24 585 91 83 57 235 181 296 242
123 122 203 272 224 418 7 49 15 63 53 101 70 70 92 125 92 226 0 81 -2 90
-46 180 -26 52 -63 140 -83 195 -21 55 -44 115 -52 134 -17 37 -9 50 31 51 74
1 285 74 440 152 130 65 209 125 320 240 197 204 239 266 270 395 25 105 -18
380 -96 614 -26 80 -28 94 -22 188 6 94 4 106 -21 171 -47 119 -122 160 -203
110 l-33 -20 -36 25 c-20 14 -42 25 -48 25 -29 -1 -98 -42 -113 -68 -9 -16
-30 -35 -47 -42 -17 -8 -54 -38 -82 -67 -28 -29 -53 -53 -55 -53 -2 0 -4 42
-5 92 -3 514 -6 551 -67 718 -88 241 -360 596 -652 850 -158 137 -343 274
-495 366 -151 92 -403 200 -570 246 -19 5 -51 13 -70 19 -19 5 -57 14 -85 20
-27 6 -68 15 -90 20 -170 37 -403 48 -525 24z m1415 -1404 c146 -39 431 -163
482 -210 54 -51 124 -268 144 -446 9 -84 9 -133 0 -207 -6 -53 -11 -141 -11
-196 0 -68 -5 -112 -16 -138 -48 -117 -71 -152 -174 -254 -202 -202 -481 -332
-856 -399 -148 -27 -444 -2 -619 52 -157 47 -326 162 -417 282 -43 57 -98 159
-98 183 0 24 26 81 127 279 199 390 390 666 591 854 110 103 257 182 384 208
29 6 62 13 73 15 11 3 85 3 165 1 106 -2 166 -9 225 -24z m1674 -842 c55 -75
61 -157 23 -337 -10 -48 -88 -212 -101 -212 -7 0 -39 92 -81 238 -12 41 -24
114 -27 163 l-6 90 51 49 c68 65 99 67 141 9z m-1778 -1044 c10 -16 18 -36 18
-42 1 -7 -19 -41 -44 -75 -26 -34 -49 -68 -54 -75 -6 -11 -40 2 -157 62 -82
42 -150 80 -152 85 -4 10 60 30 98 30 14 0 68 11 120 25 121 30 148 29 171
-10z m-417 -777 c7 -48 3 -55 -22 -39 -11 6 -12 23 -6 67 8 64 16 56 28 -28z
m496 63 c0 -11 -11 -95 -25 -188 -14 -92 -28 -190 -32 -218 -7 -57 -17 -75
-44 -75 -11 0 -19 6 -20 13 -2 28 3 87 17 177 8 52 19 133 25 180 13 108 21
130 54 130 18 0 25 -5 25 -19z m164 -47 c30 -25 59 -57 67 -70 8 -15 18 -23
27 -19 18 7 52 -22 51 -44 0 -9 -14 -37 -32 -62 -18 -26 -48 -69 -67 -98 -19
-28 -41 -51 -49 -51 -13 0 -40 27 -41 42 0 4 28 42 61 84 l62 77 -24 19 c-137
106 -155 128 -127 156 16 16 13 18 72 -34z m-411 -35 c9 -14 -3 -34 -56 -105
-37 -48 -67 -94 -67 -101 0 -7 15 -22 33 -33 126 -74 157 -111 123 -140 -12
-9 -21 -7 -43 8 -15 10 -58 38 -94 61 -36 23 -76 52 -88 65 l-23 24 33 49 c18
26 45 64 59 83 15 19 39 52 54 73 29 39 51 44 69 16z m-1646 -693 c15 -13 48
-34 73 -46 61 -31 160 -99 160 -109 0 -12 -57 -31 -93 -31 -36 0 -139 61 -166
99 -23 32 -35 75 -27 96 8 21 20 19 53 -9z m2733 -129 c0 -26 -42 -143 -71
-197 -16 -30 -57 -88 -90 -127 -53 -64 -65 -73 -94 -73 -28 0 -40 -9 -87 -68
-83 -101 -208 -189 -318 -221 -25 -7 -58 -17 -74 -22 -16 -5 -68 -9 -116 -9
-138 0 -236 37 -425 164 -174 115 -231 140 -330 140 -80 1 -133 -13 -255 -66
-48 -21 -65 -28 -120 -49 -54 -21 -218 -18 -252 5 -33 21 -36 42 -9 51 34 10
96 61 111 91 8 16 41 54 73 85 l57 57 78 -28 c42 -15 122 -37 177 -49 55 -13
120 -29 145 -37 63 -21 296 -30 400 -15 93 13 195 43 250 74 19 10 79 48 132
83 53 36 122 76 153 89 67 30 149 34 177 8 27 -24 158 -30 227 -9 56 16 152
67 210 110 39 29 51 32 51 13z"/>
<path d="M3761 4453 c-51 -54 -66 -112 -64 -240 3 -185 54 -366 119 -423 43
-37 110 -42 154 -10 129 92 99 530 -45 670 -25 24 -45 34 -79 37 -44 5 -49 3
-85 -34z"/>
<path d="M2792 4218 c-18 -13 -44 -48 -60 -78 -23 -48 -27 -69 -30 -166 -5
-141 15 -243 65 -343 44 -86 92 -130 150 -138 126 -17 202 129 174 331 -26
184 -101 350 -177 395 -45 27 -81 26 -122 -1z"/>
<path d="M5762 4843 c-25 -10 -132 -192 -132 -225 0 -26 39 -49 62 -37 24 13
135 145 155 186 15 29 15 34 -1 57 -16 25 -50 33 -84 19z"/>
<path d="M5932 4455 c-101 -35 -112 -42 -112 -68 0 -48 44 -58 147 -34 65 15
93 38 93 75 0 57 -27 62 -128 27z"/>
<path d="M682 4394 c-12 -8 -22 -24 -22 -35 0 -25 195 -271 233 -294 23 -13
31 -14 43 -4 35 28 34 44 -3 100 -76 115 -175 237 -196 243 -30 8 -30 8 -55
-10z"/>
<path d="M5890 4054 c-11 -13 -10 -19 8 -37 18 -17 26 -19 40 -11 9 6 19 19
20 29 7 33 -45 48 -68 19z"/>
<path d="M486 3868 c-25 -38 2 -87 48 -88 11 0 33 -4 50 -9 17 -5 75 -17 130
-26 90 -14 101 -14 123 0 32 21 28 64 -7 81 -34 17 -202 55 -271 61 -52 5 -58
4 -73 -19z"/>
<path d="M5850 3812 c0 -42 24 -70 47 -56 25 15 28 42 7 65 -26 29 -54 25 -54
-9z"/>
</g>
</svg>
